RBDS019runT25_grf
version=1
nRows=21
nColumns=19
inDegrees=no
endheader
time	ground_force_r_vx	ground_force_r_vy	ground_force_r_vz	ground_force_r_px	ground_force_r_py	ground_force_r_pz	ground_force_r_mx	ground_force_r_my	ground_force_r_mz	ground_force_l_vx	ground_force_l_vy	ground_force_l_vz	ground_force_l_px	ground_force_l_py	ground_force_l_pz	ground_force_l_mx	ground_force_l_my	ground_force_l_mz
     14.99900000	   -131.29714935	   1140.66393182	    -47.44697197	      2.35605620	      0.00000000	      1.05214919	      0.00000000	      4.87351664	     -0.00000000	      0.00000000	      0.00000000	      0.00000000	      0.00000000	      0.00000000	      0.00000000	      0.00000000	      0.00000000	      0.00000000
     15.00000000	   -132.44999404	   1148.90322140	    -48.95297217	      2.35482114	      0.00000000	      1.05219649	      0.00000000	      4.87075260	     -0.00000000	      0.00000000	      0.00000000	      0.00000000	      0.00000000	      0.00000000	      0.00000000	      0.00000000	      0.00000000	      0.00000000
     15.00100000	   -133.10656884	   1156.91516055	    -50.39907659	      2.35346914	      0.00000000	      1.05224380	      0.00000000	      4.86710782	     -0.00000000	      0.00000000	      0.00000000	      0.00000000	      0.00000000	      0.00000000	      0.00000000	      0.00000000	      0.00000000	      0.00000000
     15.00200000	   -133.76314364	   1164.92709970	    -51.84518101	      2.35211714	      0.00000000	      1.05229112	      0.00000000	      4.86346303	     -0.00000000	      0.00000000	      0.00000000	      0.00000000	      0.00000000	      0.00000000	      0.00000000	      0.00000000	      0.00000000	      0.00000000
     15.00300000	   -134.41971844	   1172.93903886	    -53.29128543	      2.35076513	      0.00000000	      1.05233843	      0.00000000	      4.85981824	     -0.00000000	      0.00000000	      0.00000000	      0.00000000	      0.00000000	      0.00000000	      0.00000000	      0.00000000	      0.00000000	      0.00000000
     15.00400000	   -134.72764133	   1180.80649600	    -54.67827877	      2.34933669	      0.00000000	      1.05238446	      0.00000000	      4.85606889	     -0.00000000	      0.00000000	      0.00000000	      0.00000000	      0.00000000	      0.00000000	      0.00000000	      0.00000000	      0.00000000	      0.00000000
     15.00500000	   -134.86123826	   1188.60171212	    -56.03571656	      2.34787003	      0.00000000	      1.05242985	      0.00000000	      4.85226726	     -0.00000000	      0.00000000	      0.00000000	      0.00000000	      0.00000000	      0.00000000	      0.00000000	      0.00000000	      0.00000000	      0.00000000
     15.00600000	   -134.99483519	   1196.39692825	    -57.39315435	      2.34640336	      0.00000000	      1.05247523	      0.00000000	      4.84846563	     -0.00000000	      0.00000000	      0.00000000	      0.00000000	      0.00000000	      0.00000000	      0.00000000	      0.00000000	      0.00000000	      0.00000000
     15.00700000	   -134.95019020	   1204.11465072	    -58.71198998	      2.34489991	      0.00000000	      1.05251931	      0.00000000	      4.84491139	     -0.00000000	      0.00000000	      0.00000000	      0.00000000	      0.00000000	      0.00000000	      0.00000000	      0.00000000	      0.00000000	      0.00000000
     15.00800000	   -134.54906136	   1211.67738585	    -59.95362128	      2.34332287	      0.00000000	      1.05256077	      0.00000000	      4.84185192	     -0.00000000	      0.00000000	      0.00000000	      0.00000000	      0.00000000	      0.00000000	      0.00000000	      0.00000000	      0.00000000	      0.00000000
     15.00900000	   -134.14793252	   1219.24012099	    -61.19525257	      2.34174582	      0.00000000	      1.05260223	      0.00000000	      4.83879246	     -0.00000000	      0.00000000	      0.00000000	      0.00000000	      0.00000000	      0.00000000	      0.00000000	      0.00000000	      0.00000000	      0.00000000
     15.01000000	   -133.74680368	   1226.80285612	    -62.43688386	      2.34016878	      0.00000000	      1.05264369	      0.00000000	      4.83573299	     -0.00000000	      0.00000000	      0.00000000	      0.00000000	      0.00000000	      0.00000000	      0.00000000	      0.00000000	      0.00000000	      0.00000000
     15.01100000	   -132.81376876	   1234.09310858	    -63.53820642	      2.33848749	      0.00000000	      1.05267924	      0.00000000	      4.83435317	     -0.00000000	      0.00000000	      0.00000000	      0.00000000	      0.00000000	      0.00000000	      0.00000000	      0.00000000	      0.00000000	      0.00000000
     15.01200000	   -131.88073383	   1241.38336103	    -64.63952897	      2.33680619	      0.00000000	      1.05271478	      0.00000000	      4.83297334	     -0.00000000	      0.00000000	      0.00000000	      0.00000000	      0.00000000	      0.00000000	      0.00000000	      0.00000000	      0.00000000	      0.00000000
     15.01300000	   -130.94769890	   1248.67361348	    -65.74085152	      2.33512489	      0.00000000	      1.05275033	      0.00000000	      4.83159352	     -0.00000000	      0.00000000	      0.00000000	      0.00000000	      0.00000000	      0.00000000	      0.00000000	      0.00000000	      0.00000000	      0.00000000
     15.01400000	   -129.67099962	   1255.74146142	    -66.73461798	      2.33337925	      0.00000000	      1.05278065	      0.00000000	      4.83189567	     -0.00000000	      0.00000000	      0.00000000	      0.00000000	      0.00000000	      0.00000000	      0.00000000	      0.00000000	      0.00000000	      0.00000000
     15.01500000	   -128.22246815	   1262.69810710	    -67.67460639	      2.33160144	      0.00000000	      1.05280835	      0.00000000	      4.83303879	     -0.00000000	      0.00000000	      0.00000000	      0.00000000	      0.00000000	      0.00000000	      0.00000000	      0.00000000	      0.00000000	      0.00000000
     15.01600000	   -126.77393668	   1269.65475279	    -68.61459481	      2.32982363	      0.00000000	      1.05283606	      0.00000000	      4.83418192	     -0.00000000	      0.00000000	      0.00000000	      0.00000000	      0.00000000	      0.00000000	      0.00000000	      0.00000000	      0.00000000	      0.00000000
     15.01700000	   -125.16308582	   1276.47406614	    -69.49516930	      2.32801667	      0.00000000	      1.05286054	      0.00000000	      4.83637613	     -0.00000000	      0.00000000	      0.00000000	      0.00000000	      0.00000000	      0.00000000	      0.00000000	      0.00000000	      0.00000000	      0.00000000
     15.01800000	   -123.22759617	   1283.01871484	    -70.25691597	      2.32615140	      0.00000000	      1.05287859	      0.00000000	      4.84067254	     -0.00000000	      0.00000000	      0.00000000	      0.00000000	      0.00000000	      0.00000000	      0.00000000	      0.00000000	      0.00000000	      0.00000000
     15.01900000	   -121.29210653	   1289.56336354	    -71.01866264	      2.32428613	      0.00000000	      1.05289663	      0.00000000	      4.84496894	     -0.00000000	      0.00000000	      0.00000000	      0.00000000	      0.00000000	      0.00000000	      0.00000000	      0.00000000	      0.00000000	      0.00000000
